<svg width="34" height="55" viewBox="0 0 34 55" fill="none" xmlns="http://www.w3.org/2000/svg">
<path d="M1.47456 27.2184C6.59092 26.4676 15.3618 21.3993 15.5446 1.31399C15.5446 0.965495 15.6793 0.63128 15.9192 0.384859C16.1591 0.138437 16.4844 0 16.8236 0C17.1629 0 17.4882 0.138437 17.7281 0.384859C17.968 0.63128 18.1027 0.965495 18.1027 1.31399C17.92 24.215 28.1527 25.9044 32.5382 26.6553C32.901 26.7247 33.2348 26.9053 33.4957 27.1733C33.7566 27.4414 33.9324 27.7843 34 28.157C33.9426 28.5541 33.7737 28.9254 33.5141 29.2254C33.2545 29.5255 32.9153 29.7413 32.5382 29.8464C27.6046 30.4095 17.5546 32.4744 17.1891 53.4983C17.1891 53.8966 17.0351 54.2785 16.7609 54.5602C16.4868 54.8418 16.115 55 15.7273 55C15.3396 55 14.9678 54.8418 14.6936 54.5602C14.4195 54.2785 14.2655 53.8966 14.2655 53.4983C14.6309 32.4744 5.86001 31.3481 1.29183 30.2218C1.09926 30.1987 0.913094 30.1364 0.744175 30.0386C0.575256 29.9408 0.42696 29.8095 0.307922 29.6523C0.188885 29.4951 0.101486 29.3151 0.050808 29.1228C0.0001297 28.9306 -0.0128021 28.7299 0.0127487 28.5324C0.128483 28.2044 0.323257 27.9118 0.578892 27.682C0.834526 27.4522 1.14267 27.2927 1.47456 27.2184Z" fill="#5C82F2"/>
</svg>
